HIERARCHY
ROOT Hips
{
	OFFSET 0.000000 0.000000 0.000000
	CHANNELS 6 Xposition Yposition Zposition Zrotation Yrotation Xrotation 
	JOINT LeftUpLeg_virtual
	{
		OFFSET 0.000000 0.000000 0.000000
		CHANNELS 3 Zrotation Yrotation Xrotation
		JOINT LeftUpLeg
		{
			OFFSET 8.479694 -4.795517 -0.379053
			CHANNELS 3 Zrotation Yrotation Xrotation
			JOINT LeftLeg
			{
				OFFSET 0.485052 -32.551468 0.112863
				CHANNELS 3 Zrotation Yrotation Xrotation
				JOINT LeftFoot
				{
					OFFSET 0.438033 -32.635670 -3.012641
					CHANNELS 3 Zrotation Yrotation Xrotation
					JOINT LeftToeBase
					{
						OFFSET 0.970169 -13.225353 11.864223
						CHANNELS 3 Zrotation Yrotation Xrotation
						End Site
						{
							OFFSET 0.000000 0.000000 0.000000
						}
					}
				}
			}
		}
	}
	JOINT RightUpLeg_virtual
	{
		OFFSET 0.000000 0.000000 0.000000
		CHANNELS 3 Zrotation Yrotation Xrotation
		JOINT RightUpLeg
		{
			OFFSET -8.479694 -4.795517 -0.379053
			CHANNELS 3 Zrotation Yrotation Xrotation
			JOINT RightLeg
			{
				OFFSET -0.484100 -32.551483 0.112903
				CHANNELS 3 Zrotation Yrotation Xrotation
				JOINT RightFoot
				{
					OFFSET -0.438985 -32.635651 -3.012681
					CHANNELS 3 Zrotation Yrotation Xrotation
					JOINT RightToeBase
					{
						OFFSET -0.970169 -13.225354 11.864223
						CHANNELS 3 Zrotation Yrotation Xrotation
						End Site
						{
							OFFSET 0.000000 0.000000 0.000000
						}
					}
				}
			}
		}
	}
	JOINT Spine_virtual
	{
		OFFSET 0.000000 0.000000 0.000000
		CHANNELS 3 Zrotation Yrotation Xrotation
		JOINT Spine
		{
			OFFSET 0.000000 7.722015 1.166203
			CHANNELS 3 Zrotation Yrotation Xrotation
			JOINT Spine1
			{
				OFFSET 0.000000 12.024086 0.248766
				CHANNELS 3 Zrotation Yrotation Xrotation
				JOINT Spine2
				{
					OFFSET -0.000000 11.503036 -0.491240
					CHANNELS 3 Zrotation Yrotation Xrotation
					JOINT Neck_virtual
					{
						OFFSET 0.000000 0.000000 0.000000
						CHANNELS 3 Zrotation Yrotation Xrotation
						JOINT Neck
						{
							OFFSET 0.000000 18.430687 -3.123054
							CHANNELS 3 Zrotation Yrotation Xrotation
							JOINT Head
							{
								OFFSET -0.000000 9.051071 1.034021
								CHANNELS 3 Zrotation Yrotation Xrotation
								End Site
								{
									OFFSET 0.000000 0.000000 0.000000
								}
							}
						}
					}
					JOINT LeftShoulder_virtual
					{
						OFFSET 0.000000 0.000000 0.000000
						CHANNELS 3 Zrotation Yrotation Xrotation
						JOINT LeftShoulder
						{
							OFFSET 6.197824 13.665230 -4.064723
							CHANNELS 3 Zrotation Yrotation Xrotation
							JOINT LeftArm
							{
								OFFSET 7.778132 -0.187073 -1.709282
								CHANNELS 3 Zrotation Yrotation Xrotation
								JOINT LeftForeArm
								{
									OFFSET 21.954697 0.000000 -2.041093
									CHANNELS 3 Zrotation Yrotation Xrotation
									JOINT LeftHand
									{
										OFFSET 22.992908 0.000000 -0.870901
										CHANNELS 3 Zrotation Yrotation Xrotation
										End Site
										{
											OFFSET 0.000000 0.000000 0.000000
										}
									}
								}
							}
						}
					}
					JOINT RightShoulder_virtual
					{
						OFFSET 0.000000 0.000000 0.000000
						CHANNELS 3 Zrotation Yrotation Xrotation
						JOINT RightShoulder
						{
							OFFSET -6.197824 13.665230 -4.064723
							CHANNELS 3 Zrotation Yrotation Xrotation
							JOINT RightArm
							{
								OFFSET -7.778132 -0.187073 -1.709282
								CHANNELS 3 Zrotation Yrotation Xrotation
								JOINT RightForeArm
								{
									OFFSET -21.954697 0.000000 -2.041093
									CHANNELS 3 Zrotation Yrotation Xrotation
									JOINT RightHand
									{
										OFFSET -22.992908 0.000000 -0.870901
										CHANNELS 3 Zrotation Yrotation Xrotation
										End Site
										{
											OFFSET 0.000000 0.000000 0.000000
										}
									}
								}
							}
						}
					}
				}
			}
		}
	}
}
MOTION
Frames: 11
Frame Time: 0.033333
-18.762915 66.568306 -15.640273 -179.988489 -1.053444 -179.989787 -1.637459 -6.008179 7.926555 -4.000360 4.282556 -70.055379 7.689055 -0.551611 77.903369 -5.907226 -8.497949 -22.560590 0.000000 0.000000 0.000000 1.163267 -5.216677 9.440934 1.971326 -8.128650 -73.413516 3.040202 4.620235 69.438531 4.350727 -0.527657 -9.375609 0.000000 0.000000 0.000000 0.142702 -0.894176 16.607878 -8.728785 0.899893 15.211461 -1.467688 -0.285115 2.715433 -0.025236 -0.024352 -0.015476 -2.350977 0.850647 8.135523 -12.043968 -2.271013 -14.773653 0.000000 0.000000 0.000000 -0.762253 1.791494 3.995208 28.867077 -13.790902 -5.597787 -107.479659 -37.365615 18.086430 7.713349 -7.174646 11.065366 0.000000 0.000000 0.000000 -4.103235 2.975175 3.808710 -1.073685 24.282788 1.295459 68.570345 28.125923 29.979401 -6.072452 38.889137 -10.867495 0.000000 0.000000 0.000000 
-18.734507 66.544807 -15.512058 179.961770 -0.911227 -179.997532 -1.709318 -6.201854 7.717940 -3.829781 4.508361 -69.784616 7.848060 -0.326957 77.363429 -6.049505 -8.269051 -22.001714 0.000000 0.000000 0.000000 1.055631 -5.294444 9.167244 2.149218 -8.005720 -73.250213 3.124043 4.673491 69.317930 4.236106 -0.527438 -9.201803 0.000000 0.000000 0.000000 -0.038154 -1.110815 16.457003 -8.657714 0.950033 15.216342 -1.499433 -0.283062 2.675292 -0.014066 -0.014704 -0.017510 -2.342312 0.845670 8.066383 -11.900247 -2.071008 -14.753233 0.000000 0.000000 0.000000 -0.765637 1.817050 3.903780 28.765833 -13.709458 -5.503821 -107.378531 -37.091974 18.268888 7.642066 -7.076893 11.029964 0.000000 0.000000 0.000000 -4.140339 3.049970 3.734525 -0.904781 24.338848 1.325182 68.216050 28.016970 30.154667 -6.300054 39.374306 -11.032187 0.000000 0.000000 0.000000 
-18.725109 66.510452 -15.352573 179.975731 -0.663353 179.988667 -1.807338 -6.296001 7.481106 -3.573431 4.690046 -69.503295 7.800491 -0.171232 75.450873 -6.124243 -7.975418 -19.449358 0.000000 0.000000 0.000000 1.069760 -5.358366 8.989148 2.249522 -7.951076 -73.181638 3.106813 4.618028 69.223749 4.167734 -0.360057 -8.875200 0.000000 0.000000 0.000000 -0.109681 -1.164844 16.412827 -8.565048 1.003299 15.189475 -1.505039 -0.312007 2.625576 0.009234 -0.026398 -0.020183 -2.399487 0.790474 7.958277 -11.739741 -1.888522 -14.697450 0.000000 0.000000 0.000000 -0.831734 1.788428 3.838085 28.714836 -13.703691 -5.485833 -107.261106 -36.797333 18.478573 7.555749 -6.992792 11.047266 0.000000 0.000000 0.000000 -4.198840 2.988337 3.655288 -0.708661 24.365947 1.365993 67.944113 27.876983 30.310488 -6.445921 39.909492 -11.128408 0.000000 0.000000 0.000000 
-18.731966 66.491280 -15.162424 179.884780 -0.410713 179.978531 -2.008206 -6.407638 7.280113 -3.375353 4.804334 -69.234294 7.740465 -0.056244 73.542655 -6.250292 -7.762624 -17.256307 0.000000 0.000000 0.000000 1.033856 -5.396912 8.872279 2.385030 -8.006596 -73.265691 3.099127 4.604627 68.987178 4.154798 -0.199894 -8.534859 0.000000 0.000000 0.000000 -0.237266 -1.260340 16.491705 -8.540184 0.997188 15.141327 -1.511092 -0.264549 2.575559 -0.008864 0.032571 0.011233 -2.323854 0.800515 7.789363 -11.525137 -1.692148 -14.592434 0.000000 0.000000 0.000000 -0.781811 1.679998 3.730461 28.680121 -13.658658 -5.483229 -107.077231 -36.560363 18.590180 7.472522 -7.075412 10.700144 0.000000 0.000000 0.000000 -4.147709 2.883152 3.506742 -0.610062 24.368378 1.325191 67.711449 27.813845 30.428636 -6.613265 40.424987 -11.228944 0.000000 0.000000 0.000000 
-18.750225 66.489456 -14.972922 179.964215 -0.150838 179.964543 -1.950191 -6.472607 7.136815 -3.135297 4.798719 -69.117573 7.806382 0.153107 72.639697 -6.408551 -7.704294 -16.362779 0.000000 0.000000 0.000000 1.075630 -5.301883 8.862404 2.541869 -8.043472 -73.312607 3.064462 4.501473 68.699265 4.193772 -0.074594 -8.123490 0.000000 0.000000 0.000000 -0.241246 -1.179415 16.672982 -8.423253 1.065118 15.079663 -1.453468 -0.373174 2.517543 0.013854 -0.022429 -0.019425 -2.319762 0.680825 7.699115 -11.342686 -1.447327 -14.557653 0.000000 0.000000 0.000000 -0.790324 1.659722 3.692692 28.611019 -13.623926 -5.462331 -106.796565 -36.342115 18.623764 7.338459 -7.366132 10.671151 0.000000 0.000000 0.000000 -4.179260 2.851575 3.452426 -0.584672 24.400876 1.281846 67.538550 27.730131 30.493390 -6.741841 40.846772 -11.304027 0.000000 0.000000 0.000000 
-18.775496 66.513336 -14.840389 179.968149 0.058513 179.977138 -2.055552 -6.334006 7.129485 -3.182933 4.781808 -69.115176 7.895203 -0.071667 72.425782 -6.389945 -7.693258 -16.213541 0.000000 0.000000 0.000000 1.032634 -5.103517 8.918607 2.662575 -8.121352 -73.404118 2.998615 4.532326 68.416796 4.224730 -0.033343 -7.879954 0.000000 0.000000 0.000000 -0.344804 -1.138632 16.863949 -8.356685 1.138659 15.009896 -1.402808 -0.396682 2.504873 0.022287 0.008731 0.014820 -2.245310 0.627039 7.529960 -11.166371 -1.223990 -14.520190 0.000000 0.000000 0.000000 -0.734323 1.625281 3.614718 28.482611 -13.503277 -5.436041 -106.512080 -36.317625 18.722899 7.170971 -7.860969 10.510779 0.000000 0.000000 0.000000 -4.122580 2.669252 3.353217 -0.695821 24.507351 1.191669 67.440953 27.683354 30.542294 -6.800982 41.181741 -11.331143 0.000000 0.000000 0.000000 
-18.777679 66.557060 -14.797652 -179.924750 0.239874 179.983735 -2.002712 -6.007107 7.194111 -3.127751 4.666763 -69.139498 7.810198 -0.112433 72.271242 -6.232417 -7.660852 -16.088190 0.000000 0.000000 0.000000 1.036393 -4.784083 9.051637 2.785343 -8.135735 -73.395601 2.986544 4.584166 68.237401 4.331254 -0.212963 -7.764901 0.000000 0.000000 0.000000 -0.435233 -0.933024 17.022126 -8.238971 1.154499 14.969307 -1.296354 -0.475460 2.498094 -0.061379 0.006570 -0.025043 -2.141161 0.407481 7.471783 -11.060573 -0.983870 -14.591856 0.000000 0.000000 0.000000 -0.651572 1.565022 3.583059 28.279888 -13.222274 -5.355422 -106.392320 -36.261775 18.988278 6.992293 -8.440872 10.325800 0.000000 0.000000 0.000000 -4.029720 2.663422 3.312374 -0.826543 24.752221 1.282465 67.365473 27.632627 30.761816 -7.189379 41.402158 -11.702522 0.000000 0.000000 0.000000 
-18.793549 66.611351 -14.865914 -179.962138 0.125424 179.983462 -2.279057 -5.882617 7.373923 -3.031426 4.571216 -69.291381 7.755541 -0.153577 72.223711 -6.115346 -7.785551 -16.075427 0.000000 0.000000 0.000000 0.917181 -4.650128 9.194288 2.864141 -8.248926 -73.413865 2.849912 4.657156 68.180526 4.336260 -0.139490 -7.867573 0.000000 0.000000 0.000000 -0.549198 -0.852263 17.065561 -8.103142 1.164632 14.952170 -1.278254 -0.569723 2.558300 -0.007064 -0.004461 -0.024268 -2.067883 0.247137 7.401640 -11.028146 -0.746765 -14.658803 0.000000 0.000000 0.000000 -0.600032 1.428306 3.565029 27.902919 -12.868222 -5.193342 -106.300208 -36.322659 19.465074 6.793539 -8.932468 10.098392 0.000000 0.000000 0.000000 -3.960518 2.513939 3.292374 -1.001455 25.015949 1.277900 67.274747 27.590568 30.712557 -7.259867 41.599773 -11.749732 0.000000 0.000000 0.000000 
-18.818274 66.667511 -15.001954 -179.929313 -0.158559 179.989705 -2.352279 -5.925688 7.597228 -2.974624 4.506839 -69.416920 7.720874 -0.120955 72.192408 -5.991529 -7.903814 -16.174691 0.000000 0.000000 0.000000 0.858121 -4.683653 9.360079 2.931925 -8.301133 -73.384659 2.791085 4.758531 68.215381 4.442769 -0.211198 -8.043566 0.000000 0.000000 0.000000 -0.639255 -0.955486 17.056205 -7.911398 1.187954 14.955345 -1.200654 -0.655037 2.669937 -0.022426 0.007601 -0.017324 -2.007249 0.233130 7.342552 -11.100188 -0.508605 -14.686816 0.000000 0.000000 0.000000 -0.494061 1.182358 3.520129 27.419233 -12.294324 -4.968556 -106.264541 -36.432690 19.958115 6.629565 -9.260600 9.876223 0.000000 0.000000 0.000000 -3.866715 2.325823 3.277038 -1.196831 25.318975 1.237679 67.111642 27.660758 30.533329 -7.342705 41.820073 -11.826873 0.000000 0.000000 0.000000 
-18.858013 66.710655 -15.169815 -179.912551 -0.411904 179.987916 -2.400781 -6.004894 7.870265 -3.001568 4.523460 -69.531927 7.693928 -0.069309 72.220132 -5.921276 -8.028870 -16.360064 0.000000 0.000000 0.000000 0.787771 -4.759079 9.536250 2.960439 -8.331888 -73.406440 2.754670 4.822855 68.288962 4.561348 -0.252835 -8.257318 0.000000 0.000000 0.000000 -0.742126 -1.163170 17.005639 -7.762180 1.291210 14.911881 -1.148391 -0.761019 2.783980 -0.015905 -0.002622 -0.012008 -1.921420 -0.010091 7.289787 -11.294144 -0.283055 -14.770673 0.000000 0.000000 0.000000 -0.423446 1.083966 3.544228 26.763591 -11.598714 -4.629124 -106.366242 -36.663824 20.694174 6.433660 -9.288554 9.730803 0.000000 0.000000 0.000000 -3.761657 2.220883 3.257490 -1.245765 25.795353 1.301833 66.682700 27.758958 30.112108 -7.535240 42.274233 -12.063939 0.000000 0.000000 0.000000 
-18.871328 66.728287 -15.298771 -179.888427 -0.690587 179.987151 -2.439231 -6.077982 8.115453 -2.990587 4.422604 -69.621785 7.666192 -0.017398 72.251435 -5.903194 -8.126862 -16.520674 0.000000 0.000000 0.000000 0.725354 -4.840508 9.733736 2.940464 -8.348365 -73.466990 2.708364 4.829413 68.387945 4.622910 -0.311265 -8.474456 0.000000 0.000000 0.000000 -0.794426 -1.217000 16.990316 -7.619005 1.284059 14.812937 -1.048945 -0.843525 2.915094 -0.040947 0.013230 -0.024953 -1.855315 -0.037785 7.281674 -11.576895 -0.086378 -14.786656 0.000000 0.000000 0.000000 -0.300518 0.865352 3.547374 26.041548 -10.681365 -4.203207 -106.422270 -36.860748 21.499135 6.302683 -9.162077 9.634364 0.000000 0.000000 0.000000 -3.659671 2.076658 3.258340 -1.054008 26.224749 1.526716 66.021052 27.608673 29.588810 -7.780862 42.995836 -12.331872 0.000000 0.000000 0.000000 
